<mxfile host="app.diagrams.net" modified="2021-01-17T16:01:56.625Z" agent="5.0 (Windows NT 10.0; Win64; x64) AppleWebKit/537.36 (KHTML, like Gecko) Chrome/87.0.4280.141 Safari/537.36" etag="dW0aS681k1GXwQ5sQ6ue" version="14.2.4" type="github">
  <diagram id="hbsrOExrKgpUgEgXs-K7" name="Page-1">
    <mxGraphModel dx="1550" dy="836" grid="1" gridSize="10" guides="1" tooltips="1" connect="1" arrows="1" fold="1" page="1" pageScale="1" pageWidth="850" pageHeight="1100" math="0" shadow="0">
      <root>
        <mxCell id="0" />
        <mxCell id="1" parent="0" />
        <mxCell id="6qmuzNch6v-jQaEMCfr8-27" value="kernel" style="ellipse;whiteSpace=wrap;html=1;verticalAlign=top;fillColor=#f8cecc;strokeColor=#b85450;" vertex="1" parent="1">
          <mxGeometry x="360" y="360" width="600" height="330" as="geometry" />
        </mxCell>
        <mxCell id="6qmuzNch6v-jQaEMCfr8-29" value="bpf file system" style="shape=parallelogram;perimeter=parallelogramPerimeter;whiteSpace=wrap;html=1;fixedSize=1;align=left;verticalAlign=bottom;fillColor=#ffe6cc;strokeColor=#d79b00;" vertex="1" parent="1">
          <mxGeometry x="425" y="430" width="475" height="100" as="geometry" />
        </mxCell>
        <mxCell id="6qmuzNch6v-jQaEMCfr8-3" style="edgeStyle=orthogonalEdgeStyle;rounded=0;orthogonalLoop=1;jettySize=auto;html=1;entryX=0.5;entryY=0;entryDx=0;entryDy=0;" edge="1" parent="1" source="6qmuzNch6v-jQaEMCfr8-1" target="6qmuzNch6v-jQaEMCfr8-2">
          <mxGeometry relative="1" as="geometry">
            <Array as="points">
              <mxPoint x="100" y="185" />
            </Array>
          </mxGeometry>
        </mxCell>
        <mxCell id="6qmuzNch6v-jQaEMCfr8-1" value="sockops.c" style="rounded=0;whiteSpace=wrap;html=1;fillColor=#dae8fc;strokeColor=#6c8ebf;" vertex="1" parent="1">
          <mxGeometry x="40" y="90" width="120" height="50" as="geometry" />
        </mxCell>
        <mxCell id="6qmuzNch6v-jQaEMCfr8-6" value="" style="edgeStyle=orthogonalEdgeStyle;rounded=0;orthogonalLoop=1;jettySize=auto;html=1;entryX=0.5;entryY=0;entryDx=0;entryDy=0;" edge="1" parent="1" source="6qmuzNch6v-jQaEMCfr8-2" target="6qmuzNch6v-jQaEMCfr8-41">
          <mxGeometry relative="1" as="geometry">
            <mxPoint x="240" y="310" as="targetPoint" />
          </mxGeometry>
        </mxCell>
        <mxCell id="6qmuzNch6v-jQaEMCfr8-2" value="llvm+clang" style="rhombus;whiteSpace=wrap;html=1;fillColor=#d5e8d4;strokeColor=#82b366;" vertex="1" parent="1">
          <mxGeometry x="60" y="210" width="80" height="80" as="geometry" />
        </mxCell>
        <mxCell id="6qmuzNch6v-jQaEMCfr8-31" style="edgeStyle=orthogonalEdgeStyle;rounded=0;orthogonalLoop=1;jettySize=auto;html=1;entryX=0;entryY=0.5;entryDx=0;entryDy=0;" edge="1" parent="1" target="6qmuzNch6v-jQaEMCfr8-34">
          <mxGeometry relative="1" as="geometry">
            <mxPoint x="240" y="360" as="sourcePoint" />
            <Array as="points">
              <mxPoint x="240" y="470" />
            </Array>
          </mxGeometry>
        </mxCell>
        <mxCell id="6qmuzNch6v-jQaEMCfr8-32" value="load" style="edgeLabel;html=1;align=center;verticalAlign=middle;resizable=0;points=[];" vertex="1" connectable="0" parent="6qmuzNch6v-jQaEMCfr8-31">
          <mxGeometry x="-0.1972" y="1" relative="1" as="geometry">
            <mxPoint x="29" y="1" as="offset" />
          </mxGeometry>
        </mxCell>
        <mxCell id="6qmuzNch6v-jQaEMCfr8-33" value="cgroup file system" style="shape=parallelogram;perimeter=parallelogramPerimeter;whiteSpace=wrap;html=1;fixedSize=1;verticalAlign=bottom;align=left;fillColor=#ffe6cc;strokeColor=#d79b00;" vertex="1" parent="1">
          <mxGeometry x="400" y="550" width="270" height="60" as="geometry" />
        </mxCell>
        <mxCell id="6qmuzNch6v-jQaEMCfr8-37" style="edgeStyle=orthogonalEdgeStyle;rounded=0;orthogonalLoop=1;jettySize=auto;html=1;" edge="1" parent="1" source="6qmuzNch6v-jQaEMCfr8-34" target="6qmuzNch6v-jQaEMCfr8-35">
          <mxGeometry relative="1" as="geometry">
            <Array as="points">
              <mxPoint x="575" y="540" />
              <mxPoint x="575" y="540" />
            </Array>
          </mxGeometry>
        </mxCell>
        <mxCell id="6qmuzNch6v-jQaEMCfr8-38" value="attach" style="edgeLabel;html=1;align=center;verticalAlign=middle;resizable=0;points=[];" vertex="1" connectable="0" parent="6qmuzNch6v-jQaEMCfr8-37">
          <mxGeometry x="-0.244" y="2" relative="1" as="geometry">
            <mxPoint x="-2" y="12" as="offset" />
          </mxGeometry>
        </mxCell>
        <mxCell id="6qmuzNch6v-jQaEMCfr8-35" value="/sys/fs/cgroup/unified" style="shape=parallelogram;perimeter=parallelogramPerimeter;whiteSpace=wrap;html=1;fixedSize=1;align=center;" vertex="1" parent="1">
          <mxGeometry x="480" y="570" width="170" height="20" as="geometry" />
        </mxCell>
        <mxCell id="6qmuzNch6v-jQaEMCfr8-41" value="sockops.o" style="rounded=0;whiteSpace=wrap;html=1;fillColor=#fff2cc;strokeColor=#d6b656;" vertex="1" parent="1">
          <mxGeometry x="180" y="320" width="120" height="50" as="geometry" />
        </mxCell>
        <mxCell id="6qmuzNch6v-jQaEMCfr8-47" value="" style="edgeStyle=orthogonalEdgeStyle;rounded=0;orthogonalLoop=1;jettySize=auto;html=1;" edge="1" parent="1" source="6qmuzNch6v-jQaEMCfr8-43" target="6qmuzNch6v-jQaEMCfr8-45">
          <mxGeometry relative="1" as="geometry" />
        </mxCell>
        <mxCell id="6qmuzNch6v-jQaEMCfr8-43" value="redir.c" style="rounded=0;whiteSpace=wrap;html=1;fillColor=#dae8fc;strokeColor=#6c8ebf;" vertex="1" parent="1">
          <mxGeometry x="1030" y="100" width="120" height="50" as="geometry" />
        </mxCell>
        <mxCell id="6qmuzNch6v-jQaEMCfr8-48" style="edgeStyle=orthogonalEdgeStyle;rounded=0;orthogonalLoop=1;jettySize=auto;html=1;entryX=0.5;entryY=0;entryDx=0;entryDy=0;" edge="1" parent="1" source="6qmuzNch6v-jQaEMCfr8-45" target="6qmuzNch6v-jQaEMCfr8-46">
          <mxGeometry relative="1" as="geometry" />
        </mxCell>
        <mxCell id="6qmuzNch6v-jQaEMCfr8-45" value="llvm+clang" style="rhombus;whiteSpace=wrap;html=1;fillColor=#d5e8d4;strokeColor=#82b366;" vertex="1" parent="1">
          <mxGeometry x="1050" y="220" width="80" height="80" as="geometry" />
        </mxCell>
        <mxCell id="6qmuzNch6v-jQaEMCfr8-52" style="edgeStyle=orthogonalEdgeStyle;rounded=0;orthogonalLoop=1;jettySize=auto;html=1;entryX=1;entryY=0.5;entryDx=0;entryDy=0;" edge="1" parent="1" source="6qmuzNch6v-jQaEMCfr8-46" target="6qmuzNch6v-jQaEMCfr8-50">
          <mxGeometry relative="1" as="geometry">
            <Array as="points">
              <mxPoint x="970" y="450" />
            </Array>
          </mxGeometry>
        </mxCell>
        <mxCell id="6qmuzNch6v-jQaEMCfr8-46" value="redir.o" style="rounded=0;whiteSpace=wrap;html=1;fillColor=#fff2cc;strokeColor=#d6b656;" vertex="1" parent="1">
          <mxGeometry x="910" y="330" width="120" height="50" as="geometry" />
        </mxCell>
        <mxCell id="6qmuzNch6v-jQaEMCfr8-57" value="attach" style="edgeStyle=orthogonalEdgeStyle;rounded=0;orthogonalLoop=1;jettySize=auto;html=1;" edge="1" parent="1" source="6qmuzNch6v-jQaEMCfr8-50" target="6qmuzNch6v-jQaEMCfr8-53">
          <mxGeometry relative="1" as="geometry" />
        </mxCell>
        <mxCell id="6qmuzNch6v-jQaEMCfr8-50" value="/sys/fs/bpf/bpf_redir" style="shape=parallelogram;perimeter=parallelogramPerimeter;whiteSpace=wrap;html=1;fixedSize=1;align=center;" vertex="1" parent="1">
          <mxGeometry x="690" y="440" width="170" height="20" as="geometry" />
        </mxCell>
        <mxCell id="6qmuzNch6v-jQaEMCfr8-60" style="edgeStyle=entityRelationEdgeStyle;rounded=0;orthogonalLoop=1;jettySize=auto;html=1;entryX=0;entryY=0.5;entryDx=0;entryDy=0;dashed=1;" edge="1" parent="1" source="6qmuzNch6v-jQaEMCfr8-34" target="6qmuzNch6v-jQaEMCfr8-53">
          <mxGeometry relative="1" as="geometry" />
        </mxCell>
        <mxCell id="6qmuzNch6v-jQaEMCfr8-61" value="create" style="edgeLabel;html=1;align=center;verticalAlign=middle;resizable=0;points=[];" vertex="1" connectable="0" parent="6qmuzNch6v-jQaEMCfr8-60">
          <mxGeometry x="-0.2343" relative="1" as="geometry">
            <mxPoint as="offset" />
          </mxGeometry>
        </mxCell>
        <mxCell id="6qmuzNch6v-jQaEMCfr8-34" value="/sys/fs/bpf/bpf_sockops" style="shape=parallelogram;perimeter=parallelogramPerimeter;whiteSpace=wrap;html=1;fixedSize=1;align=center;" vertex="1" parent="1">
          <mxGeometry x="480" y="460" width="170" height="20" as="geometry" />
        </mxCell>
        <mxCell id="6qmuzNch6v-jQaEMCfr8-53" value="/sys/fs/bpf/bpf_ops_map" style="shape=parallelogram;perimeter=parallelogramPerimeter;whiteSpace=wrap;html=1;fixedSize=1;align=center;" vertex="1" parent="1">
          <mxGeometry x="690" y="500" width="170" height="20" as="geometry" />
        </mxCell>
        <mxCell id="6qmuzNch6v-jQaEMCfr8-59" value="" style="endArrow=none;dashed=1;html=1;dashPattern=1 3;strokeWidth=2;entryX=0;entryY=0.5;entryDx=0;entryDy=0;exitX=1;exitY=0.5;exitDx=0;exitDy=0;strokeColor=none;" edge="1" parent="1" source="6qmuzNch6v-jQaEMCfr8-34" target="6qmuzNch6v-jQaEMCfr8-53">
          <mxGeometry width="50" height="50" relative="1" as="geometry">
            <mxPoint x="640" y="510" as="sourcePoint" />
            <mxPoint x="690" y="460" as="targetPoint" />
          </mxGeometry>
        </mxCell>
      </root>
    </mxGraphModel>
  </diagram>
</mxfile>
